<?xml version="1.0" encoding="UTF-8" standalone="no"?><!DOCTYPE svg PUBLIC "-//W3C//DTD SVG 1.1//EN" "http://www.w3.org/Graphics/SVG/1.1/DTD/svg11.dtd"><svg width="100%" height="100%" viewBox="0 0 6667 3750" version="1.1" xmlns="http://www.w3.org/2000/svg" xmlns:xlink="http://www.w3.org/1999/xlink" xml:space="preserve" xmlns:serif="http://www.serif.com/" style="fill-rule:evenodd;clip-rule:evenodd;stroke-linecap:round;stroke-linejoin:round;stroke-miterlimit:1.5;"><g id="Bottom"><path d="M1073.4,3717.47l325.319,0.12" style="fill:none;stroke:#000;stroke-width:4.17px;"/><path d="M2308.36,3710.95l325.319,0.12" style="fill:none;stroke:#000;stroke-width:4.17px;"/><path d="M1490.4,3712.13l325.319,0.121" style="fill:none;stroke:#000;stroke-width:4.17px;"/><path d="M1902.05,3710.95l325.319,0.12" style="fill:none;stroke:#000;stroke-width:4.17px;"/></g><g id="_2" serif:id="2"><g id="_21" serif:id="2"><path d="M1677,3711.56l179.306,-236.706" style="fill:none;stroke:#000;stroke-width:4.17px;"/><path d="M2065.37,3709.17l-208.447,-234.996" style="fill:none;stroke:#000;stroke-width:4.17px;"/></g><g id="_22" serif:id="2"><path d="M1738.42,3711.54l116.568,-153.756" style="fill:none;stroke:#000;stroke-width:4.17px;"/><path d="M1988.88,3709.19l-132.444,-149.314" style="fill:none;stroke:#000;stroke-width:4.17px;"/></g></g><g><path d="M1828.43,3504.95l-4.469,-300.741" style="fill:none;stroke:#000;stroke-width:4.17px;"/><path d="M1885.83,3505.6l-4.572,-307.658" style="fill:none;stroke:#000;stroke-width:4.17px;"/></g><g><path d="M1823.97,3204.26l-4.469,-300.741" style="fill:none;stroke:#000;stroke-width:4.17px;"/><path d="M1881.36,3204.91l-4.572,-307.658" style="fill:none;stroke:#000;stroke-width:4.17px;"/></g><g><path d="M1820.44,2954.26l-4.469,-300.741" style="fill:none;stroke:#000;stroke-width:4.17px;"/><path d="M1817.3,2723.44l-1.974,-132.894" style="fill:none;stroke:#000;stroke-width:4.17px;"/><path d="M1877.84,2954.91l-4.572,-307.658" style="fill:none;stroke:#000;stroke-width:4.17px;"/></g><g><g><path d="M1815.66,2590.55l359.888,-1.545" style="fill:none;stroke:#000;stroke-width:4.17px;"/><path d="M1873.52,2647.68l302.973,-1.301" style="fill:none;stroke:#000;stroke-width:4.17px;"/></g><path d="M2176.04,2588.7l1.979,58.365" style="fill:none;stroke:#000;stroke-width:4.17px;"/></g></svg>