<?xml version="1.0" encoding="UTF-8" standalone="no"?><!DOCTYPE svg PUBLIC "-//W3C//DTD SVG 1.1//EN" "http://www.w3.org/Graphics/SVG/1.1/DTD/svg11.dtd"><svg width="100%" height="100%" viewBox="0 0 1565 1134" version="1.1" xmlns="http://www.w3.org/2000/svg" xmlns:xlink="http://www.w3.org/1999/xlink" xml:space="preserve" xmlns:serif="http://www.serif.com/" style="fill-rule:evenodd;clip-rule:evenodd;stroke-linecap:round;stroke-linejoin:round;stroke-miterlimit:1.5;"><g id="Bottom"><path d="M2.083,1130.86l325.319,0.12" style="fill:none;stroke:#000;stroke-width:4.17px;"/><path d="M1237.05,1124.33l325.319,0.12" style="fill:none;stroke:#000;stroke-width:4.17px;"/><path d="M419.084,1125.51l325.319,0.12" style="fill:none;stroke:#000;stroke-width:4.17px;"/><path d="M830.739,1124.33l325.319,0.12" style="fill:none;stroke:#000;stroke-width:4.17px;"/></g><g id="_2" serif:id="2"><g id="_21" serif:id="2"><path d="M605.68,1124.94l179.307,-236.706" style="fill:none;stroke:#000;stroke-width:4.17px;"/><path d="M994.05,1122.55l-208.446,-234.996" style="fill:none;stroke:#000;stroke-width:4.17px;"/></g><g id="_22" serif:id="2"><path d="M667.107,1124.93l116.569,-153.756" style="fill:none;stroke:#000;stroke-width:4.17px;"/><path d="M917.56,1122.57l-132.444,-149.314" style="fill:none;stroke:#000;stroke-width:4.17px;"/></g></g><g><path d="M757.118,918.335l-4.469,-300.741" style="fill:none;stroke:#000;stroke-width:4.17px;"/><path d="M814.513,918.981l-4.572,-307.658" style="fill:none;stroke:#000;stroke-width:4.17px;"/></g><g><path d="M752.651,617.647l-4.47,-300.741" style="fill:none;stroke:#000;stroke-width:4.17px;"/><path d="M810.046,618.293l-4.572,-307.658" style="fill:none;stroke:#000;stroke-width:4.17px;"/></g><g><path d="M749.129,367.647l-4.469,-300.741" style="fill:none;stroke:#000;stroke-width:4.17px;"/><path d="M745.985,136.83l-1.975,-132.895" style="fill:none;stroke:#000;stroke-width:4.17px;"/><path d="M806.524,368.293l-4.571,-307.658" style="fill:none;stroke:#000;stroke-width:4.17px;"/></g><g><g><path d="M744.344,3.937l359.888,-1.545" style="fill:none;stroke:#000;stroke-width:4.17px;"/><path d="M802.208,61.069l302.974,-1.301" style="fill:none;stroke:#000;stroke-width:4.17px;"/></g><path d="M1104.73,2.083l1.979,58.365" style="fill:none;stroke:#000;stroke-width:4.17px;"/></g><g><path d="M803.554,179.481l144.867,-118.723" style="fill:none;stroke:#000;stroke-width:4.17px;"/><path d="M804.824,218.729l190.818,-158.563" style="fill:none;stroke:#000;stroke-width:4.17px;"/></g></svg>